<svg fill="#ffffff" viewBox="0 0 32 32" version="1.1" xmlns="http://www.w3.org/2000/svg" stroke="#ffffff"><g id="SVGRepo_bgCarrier" stroke-width="0"></g><g id="SVGRepo_tracerCarrier" stroke-linecap="round" stroke-linejoin="round"></g><g id="SVGRepo_iconCarrier"> <title>recycle</title> <path d="M15.966 1.232c-0.97 0.021-1.901 0.261-2.807 0.655l1.404 2.62c0.463-0.165 0.937-0.277 1.404-0.281 1.599 0 3.292 0.853 4.585 3.088l5.333 9.264 1.778-2.901-4.491-7.86c-1.714-2.964-4.434-4.608-7.205-4.585 0 0 0 0 0 0zM7.171 8.811l-4.117 7.205c-1.569 2.715-1.68 5.792-0.374 8.234 0.541 1.012 1.362 1.842 2.339 2.526l1.497-2.526c-0.502-0.397-0.929-0.867-1.216-1.403-0.781-1.46-0.831-3.41 0.281-5.334l5.053-8.702h-3.462zM27.194 21.536c-0.098 0.48-0.239 0.896-0.468 1.311-0.801 1.448-2.372 2.526-4.866 2.526h-10.199l1.778 2.994h8.421c3.402 0 6.146-1.601 7.486-4.023 0.472-0.855 0.732-1.824 0.842-2.807l-2.994 0zM11.272 12.6l-6.728-3.879 6.728-3.879-0 7.759zM22.219 15.005l6.728 3.879 0-7.759-6.729 3.879zM8.193 26.81l6.728-3.879 0 7.759-6.729-3.879z"></path> </g></svg>