<svg width="17" height="20" viewBox="0 0 17 20" fill="none" xmlns="http://www.w3.org/2000/svg">
<path d="M7.923 10.1045L1.23708 3.59964C0.774967 3.15004 0.769887 2.41788 1.22575 1.96672L2.32169 0.870456C2.77752 0.414486 3.51969 0.409337 3.97692 0.85897L8.72091 5.46492L13.3956 0.7888C13.8514 0.332831 14.5936 0.327681 15.0508 0.777315L16.1668 1.85823C16.6289 2.30783 16.634 3.04 16.1781 3.49115L9.58309 10.0882C9.12729 10.5489 8.38512 10.5541 7.923 10.1045ZM9.64729 19.3414L16.2423 12.7443C16.6981 12.2884 16.6931 11.5562 16.231 11.1114L15.1199 10.0305C14.6578 9.58087 13.9156 9.58602 13.4647 10.042L8.79 14.7181L4.05086 10.1073C3.58874 9.65768 2.84657 9.66283 2.39562 10.1188L1.29969 11.215C0.843858 11.671 0.848938 12.4032 1.31102 12.8479L7.99694 19.3528C8.44929 19.8025 9.19146 19.7973 9.64729 19.3414Z" fill="white"/>
</svg>
