<svg fill="#000000" width="800px" height="800px" viewBox="0 0 64 64" xmlns="http://www.w3.org/2000/svg"><title/><path d="M44,7H20A13,13,0,0,0,7,20V44A13,13,0,0,0,20,57H44A13,13,0,0,0,57,44V20A13,13,0,0,0,44,7ZM55,44A11,11,0,0,1,44,55H20A11,11,0,0,1,9,44V20A11,11,0,0,1,20,9H44A11,11,0,0,1,55,20Z"/><path d="M22,25H15a1,1,0,0,0-1,1V49a1,1,0,0,0,1,1h7a1,1,0,0,0,1-1V26A1,1,0,0,0,22,25ZM21,48H16V27h5Z"/><path d="M42,25h0a14.18,14.18,0,0,0-7,2.11V26a1,1,0,0,0-1-1H27a1,1,0,0,0-1,1V49a1,1,0,0,0,1,1h7a1,1,0,0,0,1-1V33.81A7.66,7.66,0,0,1,38,33c2.81,0,3,2,3,2.44V49a1,1,0,0,0,1,1h7a1,1,0,0,0,1-1V33.17a8.3,8.3,0,0,0-2.14-6.11A7.93,7.93,0,0,0,42,25Zm6,23H43V35.44C43,33.9,42,31,38,31a10.24,10.24,0,0,0-4.45,1.29,1,1,0,0,0-.55.89V48H28V27h5v2.06a1,1,0,0,0,1.66.75A12.31,12.31,0,0,1,42,27h0a6,6,0,0,1,4.42,1.47A6.41,6.41,0,0,1,48,33.17Z"/><path d="M18.5,14A4.5,4.5,0,1,0,23,18.5,4.5,4.5,0,0,0,18.5,14Zm0,7A2.5,2.5,0,1,1,21,18.5,2.5,2.5,0,0,1,18.5,21Z"/></svg>