<svg width="63" height="56" viewBox="0 0 63 56" fill="none" xmlns="http://www.w3.org/2000/svg">
<path d="M51.8133 11.2065L44.1204 16.5931C43.5887 16.9654 42.8578 16.8365 42.4903 16.3057L41.5952 15.0273C41.2229 14.4956 41.3518 13.7647 41.8826 13.3972L47.3316 9.57336L43.5134 4.12047C43.1411 3.58875 43.27 2.85784 43.8008 2.49034L45.0801 1.5904C45.6118 1.21809 46.3427 1.34697 46.7102 1.87784L52.0968 9.57071C52.4739 10.1033 52.345 10.8342 51.8133 11.2065ZM61.3342 11.1995L55.9476 3.50664C55.5753 2.97493 54.8443 2.84605 54.3174 3.2192L53.0391 4.11433C52.5074 4.48664 52.3785 5.21755 52.7516 5.74446L56.5698 11.1973L51.1169 15.0155C50.5852 15.3878 50.4563 16.1187 50.8295 16.6456L51.7246 17.924C52.0969 18.4557 52.8278 18.5846 53.3547 18.2114L61.0476 12.8248C61.5776 12.4621 61.7065 11.7312 61.3342 11.1995Z" fill="white"/>
<path d="M11.7714 9.55356L17.158 1.86069C17.5303 1.32898 18.2612 1.2001 18.7881 1.57326L20.0665 2.46839C20.5982 2.8407 20.7271 3.57161 20.3539 4.09851L16.5414 9.55536L21.9943 13.3735C22.526 13.7458 22.6549 14.4767 22.2817 15.0036L21.3875 16.2868C21.0152 16.8185 20.2842 16.9474 19.7573 16.5743L12.0645 11.1877C11.5279 10.8162 11.3991 10.0853 11.7714 9.55356ZM2.82709 12.8165L10.52 18.2031C11.0517 18.5754 11.7826 18.4465 12.1501 17.9156L13.0452 16.6372C13.4175 16.1055 13.2886 15.3746 12.7578 15.0071L7.30489 11.189L11.123 5.73608C11.4954 5.20437 11.3665 4.47345 10.8356 4.10595L9.55724 3.21083C9.02552 2.83852 8.29461 2.9674 7.92711 3.49826L2.5405 11.1911C2.1665 11.7132 2.29538 12.4441 2.82709 12.8165Z" fill="white"/>
<path d="M32.0523 45.8083L25.3658 39.2139C24.9036 38.7581 24.8985 38.0159 25.3543 37.5586L26.4501 36.4475C26.9059 35.9853 27.6481 35.9802 28.1054 36.436L32.8498 41.1053L37.524 36.3658C37.9798 35.9036 38.722 35.8985 39.1793 36.3543L40.2953 37.4501C40.7575 37.9059 40.7626 38.648 40.3068 39.1053L33.7124 45.7919C33.2567 46.2589 32.5145 46.264 32.0523 45.8083ZM33.7775 55.1715L40.3719 48.485C40.8277 48.0228 40.8225 47.2806 40.3604 46.8297L39.2492 45.7339C38.7871 45.2781 38.0449 45.2833 37.594 45.7454L32.9198 50.485L28.1802 45.8107C27.718 45.3549 26.9758 45.3601 26.5249 45.8222L25.4291 46.9333C24.9733 47.3955 24.9785 48.1377 25.4406 48.5886L32.1271 55.183C32.5795 55.6388 33.3217 55.6337 33.7775 55.1715Z" fill="white"/>
<path d="M32.0062 25.7639L25.3802 19.1086C24.9223 18.6486 24.9239 17.9065 25.3839 17.4534L26.4898 16.3523C26.9498 15.8943 27.692 15.896 28.1451 16.3559L32.8466 21.0685L37.564 16.3718C38.024 15.9138 38.7662 15.9155 39.2193 16.3754L40.3253 17.4814C40.7832 17.9414 40.7816 18.6836 40.3216 19.1367L33.6664 25.7627C33.2064 26.2255 32.4642 26.2239 32.0062 25.7639ZM33.6457 35.1425L40.301 28.5165C40.7609 28.0586 40.7626 27.3164 40.3046 26.8613L39.2035 25.7553C38.7455 25.2953 38.0034 25.2937 37.5482 25.7517L32.8309 30.4483L28.1342 25.7309C27.6762 25.2709 26.9341 25.2693 26.4789 25.7273L25.373 26.8284C24.913 27.2863 24.9114 28.0285 25.3694 28.4836L31.9953 35.1389C32.4435 35.5988 33.1857 35.6005 33.6457 35.1425Z" fill="white"/>
</svg>
